<?xml version="1.0" encoding="UTF-8"?><svg xmlns="http://www.w3.org/2000/svg" viewBox="0 0 455 635"><defs><style>.d{fill:#d9e021;}.e{fill:none;stroke:#000;stroke-miterlimit:10;stroke-width:5px;}</style></defs><g id="a"/><g id="b"><g id="c"><g><g><circle class="d" cx="196.41" cy="296.4" r="4.5"/><path class="d" d="M196.41,303.4c-3.86,0-7-3.14-7-7s3.14-7,7-7,7,3.14,7,7-3.14,7-7,7Zm0-9c-1.1,0-2,.9-2,2s.9,2,2,2,2-.9,2-2-.9-2-2-2Z"/></g><g><circle class="d" cx="205.34" cy="286.88" r="4.5"/><path class="d" d="M205.34,293.88c-3.86,0-7-3.14-7-7s3.14-7,7-7,7,3.14,7,7-3.14,7-7,7Zm0-9c-1.1,0-2,.9-2,2s.9,2,2,2,2-.9,2-2-.9-2-2-2Z"/></g><g><circle class="d" cx="196.59" cy="286.83" r="4.5"/><path class="d" d="M196.59,293.83c-3.86,0-7-3.14-7-7s3.14-7,7-7,7,3.14,7,7-3.14,7-7,7Zm0-9c-1.1,0-2,.9-2,2s.9,2,2,2,2-.9,2-2-.9-2-2-2Z"/></g><g><circle class="d" cx="205.82" cy="296.85" r="4.5"/><path class="d" d="M205.82,303.85c-3.86,0-7-3.14-7-7s3.14-7,7-7,7,3.14,7,7-3.14,7-7,7Zm0-9c-1.1,0-2,.9-2,2s.9,2,2,2,2-.9,2-2-.9-2-2-2Z"/></g><g><circle class="d" cx="205.47" cy="305.64" r="4.5"/><path class="d" d="M205.47,312.64c-3.86,0-7-3.14-7-7s3.14-7,7-7,7,3.14,7,7-3.14,7-7,7Zm0-9c-1.1,0-2,.9-2,2s.9,2,2,2,2-.9,2-2-.9-2-2-2Z"/></g><g><circle class="d" cx="196.1" cy="306" r="4.5"/><path class="d" d="M196.1,313c-3.86,0-7-3.14-7-7s3.14-7,7-7,7,3.14,7,7-3.14,7-7,7Zm0-9c-1.1,0-2,.9-2,2s.9,2,2,2,2-.9,2-2-.9-2-2-2Z"/></g><g><circle class="d" cx="186.29" cy="305.98" r="4.5"/><path class="d" d="M186.29,312.98c-3.86,0-7-3.14-7-7s3.14-7,7-7,7,3.14,7,7-3.14,7-7,7Zm0-9c-1.1,0-2,.9-2,2s.9,2,2,2,2-.9,2-2-.9-2-2-2Z"/></g><g><circle class="d" cx="186.77" cy="296.31" r="4.5"/><path class="d" d="M186.77,303.31c-3.86,0-7-3.14-7-7s3.14-7,7-7,7,3.14,7,7-3.14,7-7,7Zm0-9c-1.1,0-2,.9-2,2s.9,2,2,2,2-.9,2-2-.9-2-2-2Z"/></g></g><rect class="e" x="2.5" y="2.5" width="450" height="630"/></g></g></svg>