<?xml version="1.0" encoding="UTF-8"?><svg xmlns="http://www.w3.org/2000/svg" viewBox="0 0 455 635"><defs><style>.d{fill:none;stroke:#000;stroke-miterlimit:10;stroke-width:5px;}.e{fill:#ed1e79;}</style></defs><g id="a"/><g id="b"><g id="c"><g><g><circle class="e" cx="307.61" cy="409.06" r="4.5"/><path class="e" d="M307.61,416.06c-3.86,0-7-3.14-7-7s3.14-7,7-7,7,3.14,7,7-3.14,7-7,7Zm0-9c-1.1,0-2,.9-2,2s.9,2,2,2,2-.9,2-2-.9-2-2-2Z"/></g><g><circle class="e" cx="318.65" cy="408.9" r="4.5"/><path class="e" d="M318.65,415.9c-3.86,0-7-3.14-7-7s3.14-7,7-7,7,3.14,7,7-3.14,7-7,7Zm0-9c-1.1,0-2,.9-2,2s.9,2,2,2,2-.9,2-2-.9-2-2-2Z"/></g><g><circle class="e" cx="327.98" cy="408.9" r="4.5"/><path class="e" d="M327.98,415.9c-3.86,0-7-3.14-7-7s3.14-7,7-7,7,3.14,7,7-3.14,7-7,7Zm0-9c-1.1,0-2,.9-2,2s.9,2,2,2,2-.9,2-2-.9-2-2-2Z"/></g><g><circle class="e" cx="326.26" cy="400.31" r="4.5"/><path class="e" d="M326.26,407.31c-3.86,0-7-3.14-7-7s3.14-7,7-7,7,3.14,7,7-3.14,7-7,7Zm0-9c-1.1,0-2,.9-2,2s.9,2,2,2,2-.9,2-2-.9-2-2-2Z"/></g><g><circle class="e" cx="298.8" cy="418.68" r="4.5"/><path class="e" d="M298.8,425.68c-3.86,0-7-3.14-7-7s3.14-7,7-7,7,3.14,7,7-3.14,7-7,7Zm0-9c-1.1,0-2,.9-2,2s.9,2,2,2,2-.9,2-2-.9-2-2-2Z"/></g><g><circle class="e" cx="308.12" cy="418.68" r="4.5"/><path class="e" d="M308.12,425.68c-3.86,0-7-3.14-7-7s3.14-7,7-7,7,3.14,7,7-3.14,7-7,7Zm0-9c-1.1,0-2,.9-2,2s.9,2,2,2,2-.9,2-2-.9-2-2-2Z"/></g><g><circle class="e" cx="317.45" cy="418.68" r="4.5"/><path class="e" d="M317.45,425.68c-3.86,0-7-3.14-7-7s3.14-7,7-7,7,3.14,7,7-3.14,7-7,7Zm0-9c-1.1,0-2,.9-2,2s.9,2,2,2,2-.9,2-2-.9-2-2-2Z"/></g><g><circle class="e" cx="289.8" cy="418.34" r="4.5"/><path class="e" d="M289.8,425.34c-3.86,0-7-3.14-7-7s3.14-7,7-7,7,3.14,7,7-3.14,7-7,7Zm0-9c-1.1,0-2,.9-2,2s.9,2,2,2,2-.9,2-2-.9-2-2-2Z"/></g></g><rect class="d" x="2.5" y="2.5" width="450" height="630"/></g></g></svg>