<?xml version="1.0" encoding="UTF-8"?><svg xmlns="http://www.w3.org/2000/svg" viewBox="0 0 455 635"><defs><style>.d{fill:none;stroke:#000;stroke-miterlimit:10;stroke-width:5px;}.e{fill:#00a99d;}</style></defs><g id="a"/><g id="b"><g id="c"><g><g><circle class="e" cx="175.86" cy="296.4" r="4.5"/><path class="e" d="M175.86,303.4c-3.86,0-7-3.14-7-7s3.14-7,7-7,7,3.14,7,7-3.14,7-7,7Zm0-9c-1.1,0-2,.9-2,2s.9,2,2,2,2-.9,2-2-.9-2-2-2Z"/></g><g><circle class="e" cx="175.34" cy="286.73" r="4.5"/><path class="e" d="M175.34,293.73c-3.86,0-7-3.14-7-7s3.14-7,7-7,7,3.14,7,7-3.14,7-7,7Zm0-9c-1.1,0-2,.9-2,2s.9,2,2,2,2-.9,2-2-.9-2-2-2Z"/></g><g><circle class="e" cx="175.47" cy="267.97" r="4.5"/><path class="e" d="M175.47,274.97c-3.86,0-7-3.14-7-7s3.14-7,7-7,7,3.14,7,7-3.14,7-7,7Zm0-9c-1.1,0-2,.9-2,2s.9,2,2,2,2-.9,2-2-.9-2-2-2Z"/></g><g><circle class="e" cx="175.52" cy="277.39" r="4.5"/><path class="e" d="M175.52,284.39c-3.86,0-7-3.14-7-7s3.14-7,7-7,7,3.14,7,7-3.14,7-7,7Zm0-9c-1.1,0-2,.9-2,2s.9,2,2,2,2-.9,2-2-.9-2-2-2Z"/></g><g><circle class="e" cx="185.34" cy="267.33" r="4.5"/><path class="e" d="M185.34,274.33c-3.86,0-7-3.14-7-7s3.14-7,7-7,7,3.14,7,7-3.14,7-7,7Zm0-9c-1.1,0-2,.9-2,2s.9,2,2,2,2-.9,2-2-.9-2-2-2Z"/></g><g><circle class="e" cx="185.29" cy="286.93" r="4.5"/><path class="e" d="M185.29,293.93c-3.86,0-7-3.14-7-7s3.14-7,7-7,7,3.14,7,7-3.14,7-7,7Zm0-9c-1.1,0-2,.9-2,2s.9,2,2,2,2-.9,2-2-.9-2-2-2Z"/></g><g><circle class="e" cx="185.26" cy="277.23" r="4.5"/><path class="e" d="M185.26,284.23c-3.86,0-7-3.14-7-7s3.14-7,7-7,7,3.14,7,7-3.14,7-7,7Zm0-9c-1.1,0-2,.9-2,2s.9,2,2,2,2-.9,2-2-.9-2-2-2Z"/></g></g><rect class="d" x="2.5" y="2.5" width="450" height="630"/></g></g></svg>