<?xml version="1.0" encoding="UTF-8"?><svg xmlns="http://www.w3.org/2000/svg" viewBox="0 0 455 635"><defs><style>.d{fill:#42210b;}.e{fill:none;stroke:#000;stroke-miterlimit:10;stroke-width:5px;}</style></defs><g id="a"/><g id="b"><g id="c"><g><g><circle class="d" cx="337.48" cy="380.49" r="4.5"/><path class="d" d="M337.48,387.49c-3.86,0-7-3.14-7-7s3.14-7,7-7,7,3.14,7,7-3.14,7-7,7Zm0-9c-1.1,0-2,.9-2,2s.9,2,2,2,2-.9,2-2-.9-2-2-2Z"/></g><g><circle class="d" cx="328.57" cy="380.77" r="4.5"/><path class="d" d="M328.57,387.77c-3.86,0-7-3.14-7-7s3.14-7,7-7,7,3.14,7,7-3.14,7-7,7Zm0-9c-1.1,0-2,.9-2,2s.9,2,2,2,2-.9,2-2-.9-2-2-2Z"/></g><g><circle class="d" cx="328.05" cy="361.5" r="4.5"/><path class="d" d="M328.05,368.5c-3.86,0-7-3.14-7-7s3.14-7,7-7,7,3.14,7,7-3.14,7-7,7Zm0-9c-1.1,0-2,.9-2,2s.9,2,2,2,2-.9,2-2-.9-2-2-2Z"/></g><g><circle class="d" cx="338.06" cy="361.8" r="4.5"/><path class="d" d="M338.06,368.8c-3.86,0-7-3.14-7-7s3.14-7,7-7,7,3.14,7,7-3.14,7-7,7Zm0-9c-1.1,0-2,.9-2,2s.9,2,2,2,2-.9,2-2-.9-2-2-2Z"/></g><g><circle class="d" cx="337.78" cy="390.1" r="4.5"/><path class="d" d="M337.78,397.1c-3.86,0-7-3.14-7-7s3.14-7,7-7,7,3.14,7,7-3.14,7-7,7Zm0-9c-1.1,0-2,.9-2,2s.9,2,2,2,2-.9,2-2-.9-2-2-2Z"/></g><g><circle class="d" cx="328.06" cy="371.09" r="4.5"/><path class="d" d="M328.06,378.09c-3.86,0-7-3.14-7-7s3.14-7,7-7,7,3.14,7,7-3.14,7-7,7Zm0-9c-1.1,0-2,.9-2,2s.9,2,2,2,2-.9,2-2-.9-2-2-2Z"/></g><g><circle class="d" cx="337.62" cy="371.45" r="4.5"/><path class="d" d="M337.62,378.45c-3.86,0-7-3.14-7-7s3.14-7,7-7,7,3.14,7,7-3.14,7-7,7Zm0-9c-1.1,0-2,.9-2,2s.9,2,2,2,2-.9,2-2-.9-2-2-2Z"/></g><g><circle class="d" cx="356.17" cy="380.63" r="4.5"/><path class="d" d="M356.17,387.63c-3.86,0-7-3.14-7-7s3.14-7,7-7,7,3.14,7,7-3.14,7-7,7Zm0-9c-1.1,0-2,.9-2,2s.9,2,2,2,2-.9,2-2-.9-2-2-2Z"/></g><g><circle class="d" cx="347.61" cy="371.41" r="4.5"/><path class="d" d="M347.61,378.41c-3.86,0-7-3.14-7-7s3.14-7,7-7,7,3.14,7,7-3.14,7-7,7Zm0-9c-1.1,0-2,.9-2,2s.9,2,2,2,2-.9,2-2-.9-2-2-2Z"/></g><g><circle class="d" cx="356.31" cy="370.79" r="4.5"/><path class="d" d="M356.31,377.79c-3.86,0-7-3.14-7-7s3.14-7,7-7,7,3.14,7,7-3.14,7-7,7Zm0-9c-1.1,0-2,.9-2,2s.9,2,2,2,2-.9,2-2-.9-2-2-2Z"/></g><g><circle class="d" cx="346.99" cy="381.36" r="4.5"/><path class="d" d="M346.99,388.36c-3.86,0-7-3.14-7-7s3.14-7,7-7,7,3.14,7,7-3.14,7-7,7Zm0-9c-1.1,0-2,.9-2,2s.9,2,2,2,2-.9,2-2-.9-2-2-2Z"/></g></g><rect class="e" x="2.5" y="2.5" width="450" height="630"/></g></g></svg>