<?xml version="1.0" encoding="UTF-8"?><svg xmlns="http://www.w3.org/2000/svg" viewBox="0 0 450 630"><defs><style>.e{stroke:#fffa89;stroke-miterlimit:10;stroke-width:3px;}.e,.f{fill:none;}</style></defs><g id="a"/><g id="b"><g id="c"><rect class="f" width="450" height="630"/></g><g id="d"><polygon class="e" points="171.87 95.58 183.14 82.81 229.44 82.81 239.05 89.11 259.4 73.87 273.05 73.48 273.05 88.18 279.72 95.58 279.72 107.12 289.61 114.78 294 131 304.25 139.67 329.83 163.77 333 177 342 187 346.93 208.22 333.27 220.44 283.18 218.51 259.4 199.68 238.29 199.52 232.93 209.88 213 208 218 189 225.2 185.63 227 170 209.14 156.9 205 121 192 110 177.55 107.88 171.87 95.58"/><polygon class="e" points="171.87 95.58 157.86 94 147.54 108.67 131.05 124.76 124.22 143.2 131 155 133.91 167.24 142.93 167.24 145 158 155.73 150.01 168 149 179.9 162.6 176.12 178.58 141.39 178.58 139.74 202.01 144 215 154 225 193.86 225 204.97 209.88 213 208 218 189 225.2 185.63 227 170 209.14 156.9 205 121 192 110 177.55 107.88 171.87 95.58"/><polygon class="e" points="142.93 167.24 141.39 178.58 176.12 178.58 179.9 162.6 168 149 155.73 150.01 145 158 142.93 167.24"/><polygon class="e" points="283.18 218.51 281.18 246.9 244.41 246.9 228.54 256.79 222.97 272.57 227 296.63 234.66 302.44 244 312 234.66 324.14 236.75 343 253.07 346.86 261.65 344.67 263.77 336.52 273.52 328 286.16 324.69 302.63 328 305.71 352.28 295 359 291 364 283.18 366.42 285 376 317.18 376 320.11 366.05 326.44 354.48 339.6 354.9 342 364 359.27 363.49 361.56 337.99 370.54 333.27 370.54 306.49 361.56 307.8 359.27 297.25 359.27 249.2 359.27 231.2 346.93 220.44 346.93 208.22 333.27 220.44 283.18 218.51"/><polygon class="e" points="193.86 225 176.12 225 184.99 242.56 184.99 258.87 187.74 275.11 206.03 277.6 209.14 291.3 206.03 306.49 206.03 321.2 213.78 324.69 234.66 324.14 244 312 234.66 302.44 227 296.63 222.97 272.57 228.54 256.79 244.41 246.9 281.18 246.9 283.18 218.51 259.4 199.68 238.29 199.52 232.93 209.88 213 208 204.97 209.88 193.86 225"/><polygon class="e" points="176.12 225 154 225 136.16 225 130 216 107.41 213.97 101.44 220.44 92.2 232.35 96.83 245.12 107.41 253.8 113 265 122.8 268.61 119.85 291.3 122.8 304.35 133.18 315 139.82 315 182.95 316.84 188.41 326.31 206.03 321.2 206.03 306.49 181.28 304.77 168.33 292.11 166.8 262.11 171.87 255.33 184.99 255.33 184.99 242.56 176.12 225"/><polygon class="e" points="184.99 255.33 187.74 275.11 184.99 283.41 167.89 283.41 166.8 262.11 171.87 255.33 184.99 255.33"/><polygon class="e" points="187.74 275.11 206.03 277.6 209.14 291.3 206.03 306.49 181.28 304.77 168.33 292.11 167.89 283.41 184.99 283.41 187.74 275.11"/><polygon class="e" points="133.18 315 139.82 333.27 133.18 344.67 122.8 359.5 110.01 382.09 120.55 391.55 131.56 395.85 142.23 389.35 154.23 387.22 169.71 392.77 188.51 395.85 212.24 392.77 215 385 215 368.69 215 349.29 206.03 339.59 211 336 225.2 336.52 225.2 344.67 236.75 343 234.66 324.14 213.78 324.69 206.03 321.2 188.41 326.31 182.95 316.84 133.18 315"/><polygon class="e" points="110.01 382.09 103.86 404.34 110.01 409.67 126.09 409.67 133.35 407.25 152.12 407.25 158.46 411.59 160.16 421.73 154.23 429.74 132.01 428.05 126.75 418.87 126.09 409.67 110.01 409.67 112.29 429.74 112 454 121 462 109.33 474.04 110.01 483.59 121 488 147 485 156 474 160.16 459.46 185 456 198 442 206.03 435.05 221 435.05 217.75 425.57 209.14 421.73 206.03 408.9 206.03 393.93 188.51 395.85 169.71 392.77 154.23 387.22 142.23 389.35 131.56 395.85 110.01 382.09"/><polygon class="e" points="126.09 409.67 126.75 418.87 132.01 428.05 154.23 429.74 160.16 421.73 158.46 411.59 152.12 407.25 133.35 407.25 126.09 409.67"/><polygon class="e" points="221 435.05 234.66 430.92 239.55 425.98 251.69 435.05 273 433 270.46 421.73 276.97 414.03 283.18 407.25 291.9 407.25 298.87 414.03 305.71 407.25 319.93 404.34 323.69 395.85 331.72 392.48 326 384 317.56 382.09 317.18 376 285 376 283.18 366.42 253 364 253.07 346.86 236.75 343 225.2 344.67 225.2 336.52 211 336 206.03 339.59 215 349.29 215 368.69 215 385 212.24 392.77 206.03 393.93 206.03 408.9 209.14 421.73 217.75 425.57 221 435.05"/><polygon class="e" points="253.07 346.86 261.65 344.67 263.77 336.52 273.52 328 286.16 324.69 302.63 328 305.71 352.28 295 359 291 364 283.18 366.42 253 364 253.07 346.86"/><polygon class="e" points="317.18 376 320.11 366.05 326.44 354.48 339.6 354.9 342 364 359.27 363.49 355.42 385.52 343.11 389.14 331.72 392.48 326 384 317.56 382.09 317.18 376"/><polyline class="e" points="276.97 414.03 284.17 421.73 305.71 426.14 323.69 421.73 323.69 416.84 329 410 331.72 392.48 323.69 395.85 319.93 404.34 305.71 407.25 298.87 414.03 291.9 407.25 283.18 407.25"/><polygon class="e" points="103.86 534.9 149.12 534.9 152.26 551.76 134.12 567.48 96.83 567.48 92.2 551.19 103.86 534.9"/></g></g></svg>