<?xml version="1.0" encoding="UTF-8"?><svg xmlns="http://www.w3.org/2000/svg" viewBox="0 0 450 630"><defs><style>.e,.f{fill:none;}.f{stroke:#ff0;stroke-miterlimit:10;stroke-width:3px;}</style></defs><g id="a"/><g id="b"><g id="c"><rect class="e" width="450" height="630"/></g><g id="d"><polygon class="f" points="171.87 95.58 187.19 86.57 239.27 92.25 261.77 86.57 273.05 73.48 278.01 92.25 300.7 136.33 331.54 165.38 346.93 209.88 334.61 218.72 283.18 218.51 262.32 199.52 241.75 200.62 228.54 209.82 218.35 208.66 221.91 197.55 229.44 190.87 229.07 174.58 212.16 162.42 209.14 128.25 184.14 113.49 171.87 95.58"/><polygon class="f" points="171.87 95.58 158.47 98.01 126.84 128.85 122.8 150.94 133.91 177.26 152.48 160.15 166.42 160.24 177.55 172.58 175.04 183.12 141.39 183.84 138.19 219.03 144.43 227.73 197.37 229.62 218.35 208.66 221.91 197.55 229.44 190.87 229.07 174.58 212.16 162.42 209.14 128.25 184.14 113.49 171.87 95.58"/><path class="f" d="M144.43,227.73l-9.19,3.58-5.67-10.87-24.9,1.53-10.43,12.36-2.04,18.71,26.83,22.66,1.7,32.7,16.41,8.71,45.81-.26,5.46,7.85,20.73-1.16-3.11-17.05-24.26-.15-2.31-7.38-7.19-.88-.88-37.46,12.89,1.63s2.88-13.41,2.8-13.32-10.96-19.41-10.96-19.41l-31.69-1.78Z"/><polygon class="f" points="184.28 262.24 188.41 277.6 188.41 289.41 179.46 298.96 172.27 298.08 171.39 260.61 184.28 262.24"/><polygon class="f" points="188.41 277.6 206 280.76 206.03 306.49 181.77 306.34 179.46 298.96 188.41 289.41 188.41 277.6"/><polygon class="f" points="283.18 218.51 281.18 246.9 248.93 246.89 243.97 256.89 228.54 256.79 225.2 294.82 241.72 311.41 231.57 324.14 209.14 323.53 206.03 306.49 206 280.76 188.41 277.6 184.28 262.24 187.08 248.91 176.12 229.51 197.37 229.62 218.35 208.66 228.54 209.82 241.75 200.62 262.32 199.52 283.18 218.51"/><polygon class="f" points="346.93 209.88 356.32 231.75 359.89 292.04 350.99 300.44 350.99 311.51 361.56 315 361.56 304.81 368.71 306.34 372.54 332.22 361.56 337.99 359.27 363.49 339.84 362.35 337.77 352.28 320.35 355.66 319.93 363.71 309.18 365.69 307.55 372.17 284.54 372.72 282 361 299 353 300 328 274 329 265 336 263.77 361.34 254.42 360.51 248.73 342.97 234.66 343 231.57 324.14 241.72 311.41 225.2 294.82 228.54 256.79 243.97 256.89 248.93 246.89 281.18 246.9 283.18 218.51 334.61 218.72 346.93 209.88"/><polygon class="f" points="263.77 361.34 282 361 299 353 300 328 274 329 265 336 263.77 361.34"/><polygon class="f" points="133.91 177.26 141.39 183.84 175.04 183.12 177.55 172.58 166.42 160.24 152.48 160.15 133.91 177.26"/><polygon class="f" points="319.93 363.71 321.42 382.43 330.72 392.77 357.52 384.91 359.27 363.49 339.84 362.35 337.77 352.28 320.35 355.66 319.93 363.71"/><polygon class="f" points="330.72 392.77 331.72 410.76 317.84 421.29 284.17 421.73 279.69 412 289.31 408.55 295.99 413.27 303.75 404.34 319.93 402.35 321.42 394.3 330.72 392.77"/><polygon class="f" points="330.72 392.77 321.42 382.43 319.93 363.71 309.18 365.69 307.55 372.17 284.54 372.72 282 361 263.77 361.34 254.42 360.51 248.73 342.97 234.66 343 225.48 342.67 222.26 334.06 206.84 333.27 201.78 343.67 209.93 349.06 212.28 367.18 213.22 391.69 202.8 392.21 208.76 411.94 216.27 422.19 220.1 430.92 235.14 424.79 256.96 430.68 274.65 428.91 273.61 413.77 289.31 408.55 295.99 413.27 303.75 404.34 319.93 402.35 321.42 394.3 330.72 392.77"/><polygon class="f" points="137.15 317.1 136.62 345.41 118.34 356.92 107.41 379.76 120.55 391.55 138.28 394.78 144.01 386.91 166.9 387.6 171.39 395.85 202.8 392.21 213.22 391.69 209.93 349.06 201.78 343.67 206.84 333.27 222.26 334.06 225.48 342.67 234.66 343 231.57 324.14 209.14 323.53 188.41 324.69 182.95 316.84 137.15 317.1"/><polygon class="f" points="107.41 379.76 96.83 400.84 108.32 411.94 125.41 410.76 129.45 404.34 154.23 408.71 153.58 421.29 127.43 423.72 126.03 413.82 107.41 414.2 107.34 456.74 109.98 479.72 147.29 479.72 160.17 456.74 184.27 450.36 198.64 434.41 220.1 430.92 216.27 422.19 208.76 411.94 202.8 392.21 171.39 395.85 166.9 387.6 144.01 386.91 138.28 394.78 120.55 391.55 107.41 379.76"/><polygon class="f" points="129.45 404.34 125.41 410.76 126.03 413.82 127.43 423.72 153.58 421.29 154.23 408.71 129.45 404.34"/><polygon class="f" points="92.2 528.34 92.2 553.48 142.28 553.48 152.26 540.89 152.26 517.48 96.83 513.65 92.2 528.34"/></g></g></svg>