<?xml version="1.0" encoding="UTF-8"?><svg xmlns="http://www.w3.org/2000/svg" viewBox="0 0 451 631"><defs><style>.e{stroke:#000;}.e,.f{fill:none;stroke-miterlimit:10;}.f{stroke:blue;stroke-width:3px;}</style></defs><g id="a"/><g id="b"><g id="c"><rect class="e" x=".5" y=".5" width="450" height="630"/></g><g id="d"><polygon class="f" points="172.37 96.08 187.69 87.07 239.77 92.75 262.27 87.07 273.55 73.98 278.51 92.75 301.2 136.83 332.04 165.88 347.43 210.38 335.11 219.22 283.68 219.01 262.82 200.02 242.25 201.12 229.04 210.32 218.85 209.16 222.41 198.05 229.94 191.37 229.57 175.08 212.66 162.92 209.64 128.75 184.64 113.99 172.37 96.08"/><polygon class="f" points="172.37 96.08 158.97 98.51 127.34 129.35 123.3 151.44 134.41 177.76 152.98 160.65 166.92 160.74 178.05 173.08 175.54 183.62 141.89 184.34 138.69 219.53 144.93 228.23 197.87 230.12 218.85 209.16 222.41 198.05 229.94 191.37 229.57 175.08 212.66 162.92 209.64 128.75 184.64 113.99 172.37 96.08"/><path class="f" d="M144.93,228.23l-9.19,3.58-5.67-10.87-24.9,1.53-10.43,12.36-2.04,18.71,26.83,22.66,1.7,32.7,16.41,8.71,45.81-.26,5.46,7.85,20.73-1.16-3.11-17.05-24.26-.15-2.31-7.38-7.19-.88-.88-37.46,12.89,1.63s2.88-13.41,2.8-13.32-10.96-19.41-10.96-19.41l-31.69-1.78Z"/><polygon class="f" points="184.78 262.74 188.91 278.1 188.91 289.91 179.96 299.46 172.77 298.58 171.89 261.11 184.78 262.74"/><polygon class="f" points="188.91 278.1 206.5 281.26 206.53 306.99 182.27 306.84 179.96 299.46 188.91 289.91 188.91 278.1"/><polygon class="f" points="283.68 219.01 281.68 247.4 249.43 247.39 244.47 257.39 229.04 257.29 225.7 295.32 242.22 311.91 232.07 324.64 209.64 324.03 206.53 306.99 206.5 281.26 188.91 278.1 184.78 262.74 187.58 249.41 176.62 230.01 197.87 230.12 218.85 209.16 229.04 210.32 242.25 201.12 262.82 200.02 283.68 219.01"/><polygon class="f" points="347.43 210.38 356.82 232.25 360.39 292.54 351.49 300.94 351.49 312.01 362.06 315.5 362.06 305.31 369.21 306.84 373.04 332.72 362.06 338.49 359.77 363.99 340.34 362.85 338.27 352.78 320.85 356.16 320.43 364.21 309.68 366.19 308.05 372.67 285.04 373.22 282.5 361.5 299.5 353.5 300.5 328.5 274.5 329.5 265.5 336.5 264.27 361.84 254.92 361.01 249.23 343.47 235.16 343.5 232.07 324.64 242.22 311.91 225.7 295.32 229.04 257.29 244.47 257.39 249.43 247.39 281.68 247.4 283.68 219.01 335.11 219.22 347.43 210.38"/><polygon class="f" points="264.27 361.84 282.5 361.5 299.5 353.5 300.5 328.5 274.5 329.5 265.5 336.5 264.27 361.84"/><polygon class="f" points="134.41 177.76 141.89 184.34 175.54 183.62 178.05 173.08 166.92 160.74 152.98 160.65 134.41 177.76"/><polygon class="f" points="320.43 364.21 321.92 382.93 331.22 393.27 358.02 385.41 359.77 363.99 340.34 362.85 338.27 352.78 320.85 356.16 320.43 364.21"/><polygon class="f" points="331.22 393.27 332.22 411.26 318.34 421.79 284.67 422.23 280.19 412.5 289.81 409.05 296.49 413.77 304.25 404.84 320.43 402.85 321.92 394.8 331.22 393.27"/><polygon class="f" points="331.22 393.27 321.92 382.93 320.43 364.21 309.68 366.19 308.05 372.67 285.04 373.22 282.5 361.5 264.27 361.84 254.92 361.01 249.23 343.47 235.16 343.5 225.98 343.17 222.76 334.56 207.34 333.77 202.28 344.17 210.43 349.56 212.78 367.68 213.72 392.19 203.3 392.71 209.26 412.44 216.77 422.69 220.6 431.42 235.64 425.29 257.46 431.18 275.15 429.41 274.11 414.27 289.81 409.05 296.49 413.77 304.25 404.84 320.43 402.85 321.92 394.8 331.22 393.27"/><polygon class="f" points="137.65 317.6 137.12 345.91 118.84 357.42 107.91 380.26 121.05 392.05 138.78 395.28 144.51 387.41 167.4 388.1 171.89 396.35 203.3 392.71 213.72 392.19 210.43 349.56 202.28 344.17 207.34 333.77 222.76 334.56 225.98 343.17 235.16 343.5 232.07 324.64 209.64 324.03 188.91 325.19 183.45 317.34 137.65 317.6"/><polygon class="f" points="107.91 380.26 97.33 401.34 108.82 412.44 125.91 411.26 129.95 404.84 154.73 409.21 154.08 421.79 127.93 424.22 126.53 414.32 107.91 414.7 107.84 457.24 110.48 480.22 147.79 480.22 160.67 457.24 184.77 450.86 199.14 434.91 220.6 431.42 216.77 422.69 209.26 412.44 203.3 392.71 171.89 396.35 167.4 388.1 144.51 387.41 138.78 395.28 121.05 392.05 107.91 380.26"/><polygon class="f" points="129.95 404.84 125.91 411.26 126.53 414.32 127.93 424.22 154.08 421.79 154.73 409.21 129.95 404.84"/><polygon class="f" points="92.7 528.84 92.7 553.98 142.78 553.98 152.76 541.39 152.76 517.98 97.33 514.15 92.7 528.84"/></g></g></svg>