<?xml version="1.0" encoding="UTF-8"?><svg xmlns="http://www.w3.org/2000/svg" viewBox="0 0 455 635"><defs><style>.d{fill:#009245;}.e{fill:none;stroke:#000;stroke-miterlimit:10;stroke-width:5px;}</style></defs><g id="a"/><g id="b"><g id="c"><g><g><circle class="d" cx="124.96" cy="478.75" r="4.5"/><path class="d" d="M124.96,485.75c-3.86,0-7-3.14-7-7s3.14-7,7-7,7,3.14,7,7-3.14,7-7,7Zm0-9c-1.1,0-2,.9-2,2s.9,2,2,2,2-.9,2-2-.9-2-2-2Z"/></g><g><circle class="d" cx="134.41" cy="459.39" r="4.5"/><path class="d" d="M134.41,466.39c-3.86,0-7-3.14-7-7s3.14-7,7-7,7,3.14,7,7-3.14,7-7,7Zm0-9c-1.1,0-2,.9-2,2s.9,2,2,2,2-.9,2-2-.9-2-2-2Z"/></g><g><circle class="d" cx="163.29" cy="449.99" r="4.5"/><path class="d" d="M163.29,457c-3.86,0-7-3.14-7-7s3.14-7,7-7,7,3.14,7,7-3.14,7-7,7Zm0-9c-1.1,0-2,.9-2,2s.9,2,2,2,2-.9,2-2-.9-2-2-2Z"/></g><g><circle class="d" cx="153.07" cy="449.41" r="4.5"/><path class="d" d="M153.07,456.41c-3.86,0-7-3.14-7-7s3.14-7,7-7,7,3.14,7,7-3.14,7-7,7Zm0-9c-1.1,0-2,.9-2,2s.9,2,2,2,2-.9,2-2-.9-2-2-2Z"/></g><g><circle class="d" cx="134.15" cy="450.04" r="4.5"/><path class="d" d="M134.15,457.04c-3.86,0-7-3.14-7-7s3.14-7,7-7,7,3.14,7,7-3.14,7-7,7Zm0-9c-1.1,0-2,.9-2,2s.9,2,2,2,2-.9,2-2-.9-2-2-2Z"/></g><g><circle class="d" cx="163.2" cy="440.38" r="4.5"/><path class="d" d="M163.2,447.38c-3.86,0-7-3.14-7-7s3.14-7,7-7,7,3.14,7,7-3.14,7-7,7Zm0-9c-1.1,0-2,.9-2,2s.9,2,2,2,2-.9,2-2-.9-2-2-2Z"/></g><g><circle class="d" cx="192.14" cy="430.38" r="4.5"/><path class="d" d="M192.14,437.38c-3.86,0-7-3.14-7-7s3.14-7,7-7,7,3.14,7,7-3.14,7-7,7Zm0-9c-1.1,0-2,.9-2,2s.9,2,2,2,2-.9,2-2-.9-2-2-2Z"/></g><g><circle class="d" cx="162.67" cy="431" r="4.5"/><path class="d" d="M162.67,438c-3.86,0-7-3.14-7-7s3.14-7,7-7,7,3.14,7,7-3.14,7-7,7Zm0-9c-1.1,0-2,.9-2,2s.9,2,2,2,2-.9,2-2-.9-2-2-2Z"/></g><g><circle class="d" cx="201.14" cy="420.73" r="4.5"/><path class="d" d="M201.14,427.73c-3.86,0-7-3.14-7-7s3.14-7,7-7,7,3.14,7,7-3.14,7-7,7Zm0-9c-1.1,0-2,.9-2,2s.9,2,2,2,2-.9,2-2-.9-2-2-2Z"/></g><g><circle class="d" cx="192.33" cy="421.01" r="4.5"/><path class="d" d="M192.33,428.01c-3.86,0-7-3.14-7-7s3.14-7,7-7,7,3.14,7,7-3.14,7-7,7Zm0-9c-1.1,0-2,.9-2,2s.9,2,2,2,2-.9,2-2-.9-2-2-2Z"/></g><g><circle class="d" cx="172.88" cy="421.44" r="4.5"/><path class="d" d="M172.88,428.44c-3.86,0-7-3.14-7-7s3.14-7,7-7,7,3.14,7,7-3.14,7-7,7Zm0-9c-1.1,0-2,.9-2,2s.9,2,2,2,2-.9,2-2-.9-2-2-2Z"/></g><g><circle class="d" cx="163.32" cy="420.99" r="4.5"/><path class="d" d="M163.32,427.99c-3.86,0-7-3.14-7-7s3.14-7,7-7,7,3.14,7,7-3.14,7-7,7Zm0-9c-1.1,0-2,.9-2,2s.9,2,2,2,2-.9,2-2-.9-2-2-2Z"/></g><g><circle class="d" cx="191.51" cy="411.66" r="4.5"/><path class="d" d="M191.51,418.66c-3.86,0-7-3.14-7-7s3.14-7,7-7,7,3.14,7,7-3.14,7-7,7Zm0-9c-1.1,0-2,.9-2,2s.9,2,2,2,2-.9,2-2-.9-2-2-2Z"/></g><g><circle class="d" cx="162.83" cy="411.73" r="4.5"/><path class="d" d="M162.83,418.73c-3.86,0-7-3.14-7-7s3.14-7,7-7,7,3.14,7,7-3.14,7-7,7Zm0-9c-1.1,0-2,.9-2,2s.9,2,2,2,2-.9,2-2-.9-2-2-2Z"/></g><g><circle class="d" cx="191.9" cy="401.86" r="4.5"/><path class="d" d="M191.9,408.86c-3.86,0-7-3.14-7-7s3.14-7,7-7,7,3.14,7,7-3.14,7-7,7Zm0-9c-1.1,0-2,.9-2,2s.9,2,2,2,2-.9,2-2-.9-2-2-2Z"/></g><g><circle class="d" cx="163.35" cy="392.08" r="4.5"/><path class="d" d="M163.35,399.08c-3.86,0-7-3.14-7-7s3.14-7,7-7,7,3.14,7,7-3.14,7-7,7Zm0-9c-1.1,0-2,.9-2,2s.9,2,2,2,2-.9,2-2-.9-2-2-2Z"/></g><g><circle class="d" cx="153.23" cy="392.58" r="4.5"/><path class="d" d="M153.23,399.58c-3.86,0-7-3.14-7-7s3.14-7,7-7,7,3.14,7,7-3.14,7-7,7Zm0-9c-1.1,0-2,.9-2,2s.9,2,2,2,2-.9,2-2-.9-2-2-2Z"/></g><g><circle class="d" cx="172.58" cy="411.26" r="4.5"/><path class="d" d="M172.58,418.26c-3.86,0-7-3.14-7-7s3.14-7,7-7,7,3.14,7,7-3.14,7-7,7Zm0-9c-1.1,0-2,.9-2,2s.9,2,2,2,2-.9,2-2-.9-2-2-2Z"/></g><g><circle class="d" cx="201.26" cy="411.69" r="4.5"/><path class="d" d="M201.26,418.69c-3.86,0-7-3.14-7-7s3.14-7,7-7,7,3.14,7,7-3.14,7-7,7Zm0-9c-1.1,0-2,.9-2,2s.9,2,2,2,2-.9,2-2-.9-2-2-2Z"/></g><g><circle class="d" cx="124.85" cy="421.17" r="4.5"/><path class="d" d="M124.85,428.17c-3.86,0-7-3.14-7-7s3.14-7,7-7,7,3.14,7,7-3.14,7-7,7Zm0-9c-1.1,0-2,.9-2,2s.9,2,2,2,2-.9,2-2-.9-2-2-2Z"/></g><g><circle class="d" cx="115.08" cy="430.61" r="4.5"/><path class="d" d="M115.08,437.61c-3.86,0-7-3.14-7-7s3.14-7,7-7,7,3.14,7,7-3.14,7-7,7Zm0-9c-1.1,0-2,.9-2,2s.9,2,2,2,2-.9,2-2-.9-2-2-2Z"/></g><g><circle class="d" cx="124.63" cy="430.69" r="4.5"/><path class="d" d="M124.63,437.69c-3.86,0-7-3.14-7-7s3.14-7,7-7,7,3.14,7,7-3.14,7-7,7Zm0-9c-1.1,0-2,.9-2,2s.9,2,2,2,2-.9,2-2-.9-2-2-2Z"/></g><g><circle class="d" cx="134.31" cy="431.46" r="4.5"/><path class="d" d="M134.32,438.46c-3.86,0-7-3.14-7-7s3.14-7,7-7,7,3.14,7,7-3.14,7-7,7Zm0-9c-1.1,0-2,.9-2,2s.9,2,2,2,2-.9,2-2-.9-2-2-2Z"/></g><g><circle class="d" cx="144.05" cy="430.43" r="4.5"/><path class="d" d="M144.05,437.43c-3.86,0-7-3.14-7-7s3.14-7,7-7,7,3.14,7,7-3.14,7-7,7Zm0-9c-1.1,0-2,.9-2,2s.9,2,2,2,2-.9,2-2-.9-2-2-2Z"/></g><g><circle class="d" cx="153.58" cy="430.88" r="4.5"/><path class="d" d="M153.58,437.88c-3.86,0-7-3.14-7-7s3.14-7,7-7,7,3.14,7,7-3.14,7-7,7Zm0-9c-1.1,0-2,.9-2,2s.9,2,2,2,2-.9,2-2-.9-2-2-2Z"/></g><g><circle class="d" cx="173.01" cy="430.94" r="4.5"/><path class="d" d="M173.01,437.94c-3.86,0-7-3.14-7-7s3.14-7,7-7,7,3.14,7,7-3.14,7-7,7Zm0-9c-1.1,0-2,.9-2,2s.9,2,2,2,2-.9,2-2-.9-2-2-2Z"/></g><g><circle class="d" cx="134.39" cy="440.08" r="4.5"/><path class="d" d="M134.39,447.08c-3.86,0-7-3.14-7-7s3.14-7,7-7,7,3.14,7,7-3.14,7-7,7Zm0-9c-1.1,0-2,.9-2,2s.9,2,2,2,2-.9,2-2-.9-2-2-2Z"/></g><g><circle class="d" cx="143.66" cy="440.42" r="4.5"/><path class="d" d="M143.66,447.42c-3.86,0-7-3.14-7-7s3.14-7,7-7,7,3.14,7,7-3.14,7-7,7Zm0-9c-1.1,0-2,.9-2,2s.9,2,2,2,2-.9,2-2-.9-2-2-2Z"/></g><g><circle class="d" cx="153.84" cy="440.3" r="4.5"/><path class="d" d="M153.84,447.3c-3.86,0-7-3.14-7-7s3.14-7,7-7,7,3.14,7,7-3.14,7-7,7Zm0-9c-1.1,0-2,.9-2,2s.9,2,2,2,2-.9,2-2-.9-2-2-2Z"/></g><g><circle class="d" cx="172.57" cy="440.03" r="4.5"/><path class="d" d="M172.57,447.03c-3.86,0-7-3.14-7-7s3.14-7,7-7,7,3.14,7,7-3.14,7-7,7Zm0-9c-1.1,0-2,.9-2,2s.9,2,2,2,2-.9,2-2-.9-2-2-2Z"/></g><g><circle class="d" cx="171.95" cy="448.73" r="4.5"/><path class="d" d="M171.95,455.73c-3.86,0-7-3.14-7-7s3.14-7,7-7,7,3.14,7,7-3.14,7-7,7Zm0-9c-1.1,0-2,.9-2,2s.9,2,2,2,2-.9,2-2-.9-2-2-2Z"/></g><g><circle class="d" cx="182.52" cy="448.73" r="4.5"/><path class="d" d="M182.52,455.73c-3.86,0-7-3.14-7-7s3.14-7,7-7,7,3.14,7,7-3.14,7-7,7Zm0-9c-1.1,0-2,.9-2,2s.9,2,2,2,2-.9,2-2-.9-2-2-2Z"/></g><g><circle class="d" cx="143.77" cy="449.75" r="4.5"/><path class="d" d="M143.77,456.75c-3.86,0-7-3.14-7-7s3.14-7,7-7,7,3.14,7,7-3.14,7-7,7Zm0-9c-1.1,0-2,.9-2,2s.9,2,2,2,2-.9,2-2-.9-2-2-2Z"/></g><g><circle class="d" cx="115.06" cy="392.17" r="4.5"/><path class="d" d="M115.06,399.17c-3.86,0-7-3.14-7-7s3.14-7,7-7,7,3.14,7,7-3.14,7-7,7Zm0-9c-1.1,0-2,.9-2,2s.9,2,2,2,2-.9,2-2-.9-2-2-2Z"/></g><g><circle class="d" cx="143.87" cy="392.11" r="4.5"/><path class="d" d="M143.87,399.11c-3.86,0-7-3.14-7-7s3.14-7,7-7,7,3.14,7,7-3.14,7-7,7Zm0-9c-1.1,0-2,.9-2,2s.9,2,2,2,2-.9,2-2-.9-2-2-2Z"/></g><g><circle class="d" cx="115.12" cy="401.72" r="4.5"/><path class="d" d="M115.12,408.72c-3.86,0-7-3.14-7-7s3.14-7,7-7,7,3.14,7,7-3.14,7-7,7Zm0-9c-1.1,0-2,.9-2,2s.9,2,2,2,2-.9,2-2-.9-2-2-2Z"/></g><g><circle class="d" cx="124.37" cy="402.21" r="4.5"/><path class="d" d="M124.37,409.21c-3.86,0-7-3.14-7-7s3.14-7,7-7,7,3.14,7,7-3.14,7-7,7Zm0-9c-1.1,0-2,.9-2,2s.9,2,2,2,2-.9,2-2-.9-2-2-2Z"/></g><g><circle class="d" cx="134.31" cy="401.84" r="4.5"/><path class="d" d="M134.31,408.84c-3.86,0-7-3.14-7-7s3.14-7,7-7,7,3.14,7,7-3.14,7-7,7Zm0-9c-1.1,0-2,.9-2,2s.9,2,2,2,2-.9,2-2-.9-2-2-2Z"/></g><g><circle class="d" cx="144.32" cy="402.14" r="4.5"/><path class="d" d="M144.32,409.14c-3.86,0-7-3.14-7-7s3.14-7,7-7,7,3.14,7,7-3.14,7-7,7Zm0-9c-1.1,0-2,.9-2,2s.9,2,2,2,2-.9,2-2-.9-2-2-2Z"/></g><g><circle class="d" cx="153.66" cy="402.23" r="4.5"/><path class="d" d="M153.66,409.23c-3.86,0-7-3.14-7-7s3.14-7,7-7,7,3.14,7,7-3.14,7-7,7Zm0-9c-1.1,0-2,.9-2,2s.9,2,2,2,2-.9,2-2-.9-2-2-2Z"/></g><g><circle class="d" cx="163.29" cy="401.8" r="4.5"/><path class="d" d="M163.29,408.8c-3.86,0-7-3.14-7-7s3.14-7,7-7,7,3.14,7,7-3.14,7-7,7Zm0-9c-1.1,0-2,.9-2,2s.9,2,2,2,2-.9,2-2-.9-2-2-2Z"/></g><g><circle class="d" cx="172.92" cy="402.09" r="4.5"/><path class="d" d="M172.92,409.09c-3.86,0-7-3.14-7-7s3.14-7,7-7,7,3.14,7,7-3.14,7-7,7Zm0-9c-1.1,0-2,.9-2,2s.9,2,2,2,2-.9,2-2-.9-2-2-2Z"/></g><g><circle class="d" cx="201.32" cy="401.75" r="4.5"/><path class="d" d="M201.33,408.75c-3.86,0-7-3.14-7-7s3.14-7,7-7,7,3.14,7,7-3.14,7-7,7Zm0-9c-1.1,0-2,.9-2,2s.9,2,2,2,2-.9,2-2-.9-2-2-2Z"/></g><g><circle class="d" cx="115.03" cy="411.69" r="4.5"/><path class="d" d="M115.03,418.69c-3.86,0-7-3.14-7-7s3.14-7,7-7,7,3.14,7,7-3.14,7-7,7Zm0-9c-1.1,0-2,.9-2,2s.9,2,2,2,2-.9,2-2-.9-2-2-2Z"/></g><g><circle class="d" cx="124.95" cy="411.56" r="4.5"/><path class="d" d="M124.95,418.56c-3.86,0-7-3.14-7-7s3.14-7,7-7,7,3.14,7,7-3.14,7-7,7Zm0-9c-1.1,0-2,.9-2,2s.9,2,2,2,2-.9,2-2-.9-2-2-2Z"/></g><g><circle class="d" cx="154.35" cy="459.26" r="4.5"/><path class="d" d="M154.35,466.26c-3.86,0-7-3.14-7-7s3.14-7,7-7,7,3.14,7,7-3.14,7-7,7Zm0-9c-1.1,0-2,.9-2,2s.9,2,2,2,2-.9,2-2-.9-2-2-2Z"/></g><g><circle class="d" cx="211.26" cy="421.04" r="4.5"/><path class="d" d="M211.26,428.04c-3.86,0-7-3.14-7-7s3.14-7,7-7,7,3.14,7,7-3.14,7-7,7Zm0-9c-1.1,0-2,.9-2,2s.9,2,2,2,2-.9,2-2-.9-2-2-2Z"/></g><g><circle class="d" cx="211.65" cy="430.39" r="4.5"/><path class="d" d="M211.65,437.39c-3.86,0-7-3.14-7-7s3.14-7,7-7,7,3.14,7,7-3.14,7-7,7Zm0-9c-1.1,0-2,.9-2,2s.9,2,2,2,2-.9,2-2-.9-2-2-2Z"/></g><g><circle class="d" cx="143.85" cy="459.24" r="4.5"/><path class="d" d="M143.84,466.24c-3.86,0-7-3.14-7-7s3.14-7,7-7,7,3.14,7,7-3.14,7-7,7Zm0-9c-1.1,0-2,.9-2,2s.9,2,2,2,2-.9,2-2-.9-2-2-2Z"/></g><g><circle class="d" cx="124.41" cy="459.42" r="4.5"/><path class="d" d="M124.41,466.42c-3.86,0-7-3.14-7-7s3.14-7,7-7,7,3.14,7,7-3.14,7-7,7Zm0-9c-1.1,0-2,.9-2,2s.9,2,2,2,2-.9,2-2-.9-2-2-2Z"/></g><g><circle class="d" cx="182.03" cy="401.73" r="4.5"/><path class="d" d="M182.03,408.73c-3.86,0-7-3.14-7-7s3.14-7,7-7,7,3.14,7,7-3.14,7-7,7Zm0-9c-1.1,0-2,.9-2,2s.9,2,2,2,2-.9,2-2-.9-2-2-2Z"/></g><g><circle class="d" cx="182.1" cy="411.66" r="4.5"/><path class="d" d="M182.1,418.66c-3.86,0-7-3.14-7-7s3.14-7,7-7,7,3.14,7,7-3.14,7-7,7Zm0-9c-1.1,0-2,.9-2,2s.9,2,2,2,2-.9,2-2-.9-2-2-2Z"/></g><g><circle class="d" cx="116.23" cy="421.05" r="4.5"/><path class="d" d="M116.23,428.05c-3.86,0-7-3.14-7-7s3.14-7,7-7,7,3.14,7,7-3.14,7-7,7Zm0-9c-1.1,0-2,.9-2,2s.9,2,2,2,2-.9,2-2-.9-2-2-2Z"/></g><g><circle class="d" cx="182.59" cy="421.02" r="4.5"/><path class="d" d="M182.59,428.02c-3.86,0-7-3.14-7-7s3.14-7,7-7,7,3.14,7,7-3.14,7-7,7Zm0-9c-1.1,0-2,.9-2,2s.9,2,2,2,2-.9,2-2-.9-2-2-2Z"/></g><g><circle class="d" cx="182.31" cy="430.43" r="4.5"/><path class="d" d="M182.31,437.43c-3.86,0-7-3.14-7-7s3.14-7,7-7,7,3.14,7,7-3.14,7-7,7Zm0-9c-1.1,0-2,.9-2,2s.9,2,2,2,2-.9,2-2-.9-2-2-2Z"/></g><g><circle class="d" cx="182.14" cy="440.2" r="4.5"/><path class="d" d="M182.14,447.2c-3.86,0-7-3.14-7-7s3.14-7,7-7,7,3.14,7,7-3.14,7-7,7Zm0-9c-1.1,0-2,.9-2,2s.9,2,2,2,2-.9,2-2-.9-2-2-2Z"/></g><g><circle class="d" cx="124.62" cy="450.54" r="4.5"/><path class="d" d="M124.62,457.54c-3.86,0-7-3.14-7-7s3.14-7,7-7,7,3.14,7,7-3.14,7-7,7Zm0-9c-1.1,0-2,.9-2,2s.9,2,2,2,2-.9,2-2-.9-2-2-2Z"/></g><g><circle class="d" cx="114.67" cy="450.54" r="4.5"/><path class="d" d="M114.67,457.54c-3.86,0-7-3.14-7-7s3.14-7,7-7,7,3.14,7,7-3.14,7-7,7Zm0-9c-1.1,0-2,.9-2,2s.9,2,2,2,2-.9,2-2-.9-2-2-2Z"/></g><g><circle class="d" cx="124.97" cy="468.88" r="4.5"/><path class="d" d="M124.97,475.88c-3.86,0-7-3.14-7-7s3.14-7,7-7,7,3.14,7,7-3.14,7-7,7Zm0-9c-1.1,0-2,.9-2,2s.9,2,2,2,2-.9,2-2-.9-2-2-2Z"/></g><g><circle class="d" cx="134.71" cy="468.72" r="4.5"/><path class="d" d="M134.71,475.72c-3.86,0-7-3.14-7-7s3.14-7,7-7,7,3.14,7,7-3.14,7-7,7Zm0-9c-1.1,0-2,.9-2,2s.9,2,2,2,2-.9,2-2-.9-2-2-2Z"/></g><g><circle class="d" cx="143.7" cy="468.79" r="4.5"/><path class="d" d="M143.7,475.79c-3.86,0-7-3.14-7-7s3.14-7,7-7,7,3.14,7,7-3.14,7-7,7Zm0-9c-1.1,0-2,.9-2,2s.9,2,2,2,2-.9,2-2-.9-2-2-2Z"/></g><g><circle class="d" cx="134.6" cy="478.29" r="4.5"/><path class="d" d="M134.6,485.29c-3.86,0-7-3.14-7-7s3.14-7,7-7,7,3.14,7,7-3.14,7-7,7Zm0-9c-1.1,0-2,.9-2,2s.9,2,2,2,2-.9,2-2-.9-2-2-2Z"/></g><g><circle class="d" cx="144.41" cy="478.91" r="4.5"/><path class="d" d="M144.41,485.91c-3.86,0-7-3.14-7-7s3.14-7,7-7,7,3.14,7,7-3.14,7-7,7Zm0-9c-1.1,0-2,.9-2,2s.9,2,2,2,2-.9,2-2-.9-2-2-2Z"/></g><g><circle class="d" cx="202.12" cy="430.69" r="4.5"/><path class="d" d="M202.12,437.69c-3.86,0-7-3.14-7-7s3.14-7,7-7,7,3.14,7,7-3.14,7-7,7Zm0-9c-1.1,0-2,.9-2,2s.9,2,2,2,2-.9,2-2-.9-2-2-2Z"/></g><g><circle class="d" cx="124.56" cy="439.9" r="4.5"/><path class="d" d="M124.56,446.9c-3.86,0-7-3.14-7-7s3.14-7,7-7,7,3.14,7,7-3.14,7-7,7Zm0-9c-1.1,0-2,.9-2,2s.9,2,2,2,2-.9,2-2-.9-2-2-2Z"/></g><g><circle class="d" cx="106.49" cy="401.97" r="4.5"/><path class="d" d="M106.49,408.97c-3.86,0-7-3.14-7-7s3.14-7,7-7,7,3.14,7,7-3.14,7-7,7Zm0-9c-1.1,0-2,.9-2,2s.9,2,2,2,2-.9,2-2-.9-2-2-2Z"/></g><g><circle class="d" cx="191.62" cy="439.34" r="4.5"/><path class="d" d="M191.62,446.34c-3.86,0-7-3.14-7-7s3.14-7,7-7,7,3.14,7,7-3.14,7-7,7Zm0-9c-1.1,0-2,.9-2,2s.9,2,2,2,2-.9,2-2-.9-2-2-2Z"/></g><g><circle class="d" cx="115.32" cy="468.05" r="4.5"/><path class="d" d="M115.32,475.05c-3.86,0-7-3.14-7-7s3.14-7,7-7,7,3.14,7,7-3.14,7-7,7Zm0-9c-1.1,0-2,.9-2,2s.9,2,2,2,2-.9,2-2-.9-2-2-2Z"/></g><g><circle class="d" cx="115.94" cy="478" r="4.5"/><path class="d" d="M115.94,485c-3.86,0-7-3.14-7-7s3.14-7,7-7,7,3.14,7,7-3.14,7-7,7Zm0-9c-1.1,0-2,.9-2,2s.9,2,2,2,2-.9,2-2-.9-2-2-2Z"/></g><g><circle class="d" cx="154.23" cy="468.93" r="4.5"/><path class="d" d="M154.23,475.93c-3.86,0-7-3.14-7-7s3.14-7,7-7,7,3.14,7,7-3.14,7-7,7Zm0-9c-1.1,0-2,.9-2,2s.9,2,2,2,2-.9,2-2-.9-2-2-2Z"/></g><g><circle class="d" cx="115.07" cy="439.9" r="4.5"/><path class="d" d="M115.07,446.9c-3.86,0-7-3.14-7-7s3.14-7,7-7,7,3.14,7,7-3.14,7-7,7Zm0-9c-1.1,0-2,.9-2,2s.9,2,2,2,2-.9,2-2-.9-2-2-2Z"/></g></g><rect class="e" x="2.5" y="2.5" width="450" height="630"/></g></g></svg>