<?xml version="1.0" encoding="UTF-8"?><svg xmlns="http://www.w3.org/2000/svg" viewBox="0 0 455 635"><defs><style>.d{fill:#c1272d;}.e{fill:none;stroke:#000;stroke-miterlimit:10;stroke-width:5px;}</style></defs><g id="a"/><g id="b"><g id="c"><g><g><circle class="d" cx="108.95" cy="547.17" r="6.5"/><path class="d" d="M108.95,556.17c-4.96,0-9-4.04-9-9s4.04-9,9-9,9,4.04,9,9-4.04,9-9,9Zm0-13c-2.21,0-4,1.79-4,4s1.79,4,4,4,4-1.79,4-4-1.79-4-4-4Z"/></g><g><circle class="d" cx="138" cy="537.11" r="6.5"/><path class="d" d="M138,546.11c-4.96,0-9-4.04-9-9s4.04-9,9-9,9,4.04,9,9-4.04,9-9,9Zm0-13c-2.21,0-4,1.79-4,4s1.79,4,4,4,4-1.79,4-4-1.79-4-4-4Z"/></g><g><circle class="d" cx="128.26" cy="537.45" r="6.5"/><path class="d" d="M128.26,546.45c-4.96,0-9-4.04-9-9s4.04-9,9-9,9,4.04,9,9-4.04,9-9,9Zm0-13c-2.21,0-4,1.79-4,4s1.79,4,4,4,4-1.79,4-4-1.79-4-4-4Z"/></g><g><circle class="d" cx="108.52" cy="536.75" r="6.5"/><path class="d" d="M108.51,545.75c-4.96,0-9-4.04-9-9s4.04-9,9-9,9,4.04,9,9-4.04,9-9,9Zm0-13c-2.21,0-4,1.79-4,4s1.79,4,4,4,4-1.79,4-4-1.79-4-4-4Z"/></g><g><circle class="d" cx="99.07" cy="537.4" r="6.5"/><path class="d" d="M99.07,546.4c-4.96,0-9-4.04-9-9s4.04-9,9-9,9,4.04,9,9-4.04,9-9,9Zm0-13c-2.21,0-4,1.79-4,4s1.79,4,4,4,4-1.79,4-4-1.79-4-4-4Z"/></g><g><circle class="d" cx="137.64" cy="527.69" r="6.5"/><path class="d" d="M137.64,536.69c-4.96,0-9-4.04-9-9s4.04-9,9-9,9,4.04,9,9-4.04,9-9,9Zm0-13c-2.21,0-4,1.79-4,4s1.79,4,4,4,4-1.79,4-4-1.79-4-4-4Z"/></g><g><circle class="d" cx="118.07" cy="527.93" r="6.5"/><path class="d" d="M118.07,536.93c-4.96,0-9-4.04-9-9s4.04-9,9-9,9,4.04,9,9-4.04,9-9,9Zm0-13c-2.21,0-4,1.79-4,4s1.79,4,4,4,4-1.79,4-4-1.79-4-4-4Z"/></g><g><circle class="d" cx="127.82" cy="527.53" r="6.5"/><path class="d" d="M127.82,536.53c-4.96,0-9-4.04-9-9s4.04-9,9-9,9,4.04,9,9-4.04,9-9,9Zm0-13c-2.21,0-4,1.79-4,4s1.79,4,4,4,4-1.79,4-4-1.79-4-4-4Z"/></g><g><circle class="d" cx="118.11" cy="537.19" r="6.5"/><path class="d" d="M118.11,546.19c-4.96,0-9-4.04-9-9s4.04-9,9-9,9,4.04,9,9-4.04,9-9,9Zm0-13c-2.21,0-4,1.79-4,4s1.79,4,4,4,4-1.79,4-4-1.79-4-4-4Z"/></g><g><circle class="d" cx="147.09" cy="537.14" r="6.5"/><path class="d" d="M147.09,546.14c-4.96,0-9-4.04-9-9s4.04-9,9-9,9,4.04,9,9-4.04,9-9,9Zm0-13c-2.21,0-4,1.79-4,4s1.79,4,4,4,4-1.79,4-4-1.79-4-4-4Z"/></g><g><circle class="d" cx="128.1" cy="546.64" r="6.5"/><path class="d" d="M128.1,555.64c-4.96,0-9-4.04-9-9s4.04-9,9-9,9,4.04,9,9-4.04,9-9,9Zm0-13c-2.21,0-4,1.79-4,4s1.79,4,4,4,4-1.79,4-4-1.79-4-4-4Z"/></g><g><circle class="d" cx="118.52" cy="546.57" r="6.5"/><path class="d" d="M118.52,555.57c-4.96,0-9-4.04-9-9s4.04-9,9-9,9,4.04,9,9-4.04,9-9,9Zm0-13c-2.21,0-4,1.79-4,4s1.79,4,4,4,4-1.79,4-4-1.79-4-4-4Z"/></g><g><circle class="d" cx="108.67" cy="526.76" r="6.5"/><path class="d" d="M108.67,535.76c-4.96,0-9-4.04-9-9s4.04-9,9-9,9,4.04,9,9-4.04,9-9,9Zm0-13c-2.21,0-4,1.79-4,4s1.79,4,4,4,4-1.79,4-4-1.79-4-4-4Z"/></g><g><circle class="d" cx="99.2" cy="547.93" r="6.5"/><path class="d" d="M99.21,556.93c-4.96,0-9-4.04-9-9s4.04-9,9-9,9,4.04,9,9-4.04,9-9,9Zm0-13c-2.21,0-4,1.79-4,4s1.79,4,4,4,4-1.79,4-4-1.79-4-4-4Z"/></g><g><circle class="d" cx="137.61" cy="547.61" r="6.5"/><path class="d" d="M137.61,556.61c-4.96,0-9-4.04-9-9s4.04-9,9-9,9,4.04,9,9-4.04,9-9,9Zm0-13c-2.21,0-4,1.79-4,4s1.79,4,4,4,4-1.79,4-4-1.79-4-4-4Z"/></g><g><circle class="d" cx="148.07" cy="527.46" r="6.5"/><path class="d" d="M148.07,536.46c-4.96,0-9-4.04-9-9s4.04-9,9-9,9,4.04,9,9-4.04,9-9,9Zm0-13c-2.21,0-4,1.79-4,4s1.79,4,4,4,4-1.79,4-4-1.79-4-4-4Z"/></g></g><rect class="e" x="2.5" y="2.5" width="450" height="630"/></g></g></svg>