<?xml version="1.0" encoding="UTF-8"?><svg xmlns="http://www.w3.org/2000/svg" viewBox="0 0 455 635"><defs><style>.d{fill:#f15a24;}.e{fill:none;stroke:#000;stroke-miterlimit:10;stroke-width:5px;}</style></defs><g id="a"/><g id="b"><g id="c"><g><g><circle class="d" cx="243.67" cy="208.09" r="4.5"/><path class="d" d="M243.67,215.09c-3.86,0-7-3.14-7-7s3.14-7,7-7,7,3.14,7,7-3.14,7-7,7Zm0-9c-1.1,0-2,.9-2,2s.9,2,2,2,2-.9,2-2-.9-2-2-2Z"/></g><g><circle class="d" cx="253.15" cy="208.17" r="4.5"/><path class="d" d="M253.15,215.17c-3.86,0-7-3.14-7-7s3.14-7,7-7,7,3.14,7,7-3.14,7-7,7Zm0-9c-1.1,0-2,.9-2,2s.9,2,2,2,2-.9,2-2-.9-2-2-2Z"/></g><g><circle class="d" cx="234.16" cy="228.18" r="4.5"/><path class="d" d="M234.16,235.18c-3.86,0-7-3.14-7-7s3.14-7,7-7,7,3.14,7,7-3.14,7-7,7Zm0-9c-1.1,0-2,.9-2,2s.9,2,2,2,2-.9,2-2-.9-2-2-2Z"/></g><g><circle class="d" cx="273.59" cy="227.2" r="4.5"/><path class="d" d="M273.59,234.2c-3.86,0-7-3.14-7-7s3.14-7,7-7,7,3.14,7,7-3.14,7-7,7Zm0-9c-1.1,0-2,.9-2,2s.9,2,2,2,2-.9,2-2-.9-2-2-2Z"/></g><g><circle class="d" cx="235.04" cy="323.15" r="4.5"/><path class="d" d="M235.04,330.15c-3.86,0-7-3.14-7-7s3.14-7,7-7,7,3.14,7,7-3.14,7-7,7Zm0-9c-1.1,0-2,.9-2,2s.9,2,2,2,2-.9,2-2-.9-2-2-2Z"/></g><g><circle class="d" cx="234.02" cy="313.7" r="4.5"/><path class="d" d="M234.02,320.7c-3.86,0-7-3.14-7-7s3.14-7,7-7,7,3.14,7,7-3.14,7-7,7Zm0-9c-1.1,0-2,.9-2,2s.9,2,2,2,2-.9,2-2-.9-2-2-2Z"/></g><g><circle class="d" cx="195.6" cy="246.24" r="4.5"/><path class="d" d="M195.6,253.24c-3.86,0-7-3.14-7-7s3.14-7,7-7,7,3.14,7,7-3.14,7-7,7Zm0-9c-1.1,0-2,.9-2,2s.9,2,2,2,2-.9,2-2-.9-2-2-2Z"/></g><g><circle class="d" cx="205.65" cy="246.08" r="4.5"/><path class="d" d="M205.65,253.08c-3.86,0-7-3.14-7-7s3.14-7,7-7,7,3.14,7,7-3.14,7-7,7Zm0-9c-1.1,0-2,.9-2,2s.9,2,2,2,2-.9,2-2-.9-2-2-2Z"/></g><g><circle class="d" cx="234.55" cy="246.21" r="4.5"/><path class="d" d="M234.55,253.21c-3.86,0-7-3.14-7-7s3.14-7,7-7,7,3.14,7,7-3.14,7-7,7Zm0-9c-1.1,0-2,.9-2,2s.9,2,2,2,2-.9,2-2-.9-2-2-2Z"/></g><g><circle class="d" cx="262.47" cy="246.12" r="4.5"/><path class="d" d="M262.47,253.12c-3.86,0-7-3.14-7-7s3.14-7,7-7,7,3.14,7,7-3.14,7-7,7Zm0-9c-1.1,0-2,.9-2,2s.9,2,2,2,2-.9,2-2-.9-2-2-2Z"/></g><g><circle class="d" cx="195.64" cy="256.44" r="4.5"/><path class="d" d="M195.64,263.44c-3.86,0-7-3.14-7-7s3.14-7,7-7,7,3.14,7,7-3.14,7-7,7Zm0-9c-1.1,0-2,.9-2,2s.9,2,2,2,2-.9,2-2-.9-2-2-2Z"/></g><g><circle class="d" cx="205.29" cy="256.25" r="4.5"/><path class="d" d="M205.29,263.25c-3.86,0-7-3.14-7-7s3.14-7,7-7,7,3.14,7,7-3.14,7-7,7Zm0-9c-1.1,0-2,.9-2,2s.9,2,2,2,2-.9,2-2-.9-2-2-2Z"/></g><g><circle class="d" cx="234.25" cy="256.44" r="4.5"/><path class="d" d="M234.25,263.44c-3.86,0-7-3.14-7-7s3.14-7,7-7,7,3.14,7,7-3.14,7-7,7Zm0-9c-1.1,0-2,.9-2,2s.9,2,2,2,2-.9,2-2-.9-2-2-2Z"/></g><g><circle class="d" cx="243.42" cy="255.77" r="4.5"/><path class="d" d="M243.42,262.77c-3.86,0-7-3.14-7-7s3.14-7,7-7,7,3.14,7,7-3.14,7-7,7Zm0-9c-1.1,0-2,.9-2,2s.9,2,2,2,2-.9,2-2-.9-2-2-2Z"/></g><g><circle class="d" cx="205.75" cy="227.63" r="4.5"/><path class="d" d="M205.75,234.63c-3.86,0-7-3.14-7-7s3.14-7,7-7,7,3.14,7,7-3.14,7-7,7Zm0-9c-1.1,0-2,.9-2,2s.9,2,2,2,2-.9,2-2-.9-2-2-2Z"/></g><g><circle class="d" cx="234.53" cy="217.73" r="4.5"/><path class="d" d="M234.53,224.73c-3.86,0-7-3.14-7-7s3.14-7,7-7,7,3.14,7,7-3.14,7-7,7Zm0-9c-1.1,0-2,.9-2,2s.9,2,2,2,2-.9,2-2-.9-2-2-2Z"/></g><g><circle class="d" cx="196.21" cy="265.38" r="4.5"/><path class="d" d="M196.21,272.38c-3.86,0-7-3.14-7-7s3.14-7,7-7,7,3.14,7,7-3.14,7-7,7Zm0-9c-1.1,0-2,.9-2,2s.9,2,2,2,2-.9,2-2-.9-2-2-2Z"/></g><g><circle class="d" cx="262.46" cy="217.38" r="4.5"/><path class="d" d="M262.46,224.38c-3.86,0-7-3.14-7-7s3.14-7,7-7,7,3.14,7,7-3.14,7-7,7Zm0-9c-1.1,0-2,.9-2,2s.9,2,2,2,2-.9,2-2-.9-2-2-2Z"/></g><g><circle class="d" cx="205.62" cy="266.04" r="4.5"/><path class="d" d="M205.62,273.04c-3.86,0-7-3.14-7-7s3.14-7,7-7,7,3.14,7,7-3.14,7-7,7Zm0-9c-1.1,0-2,.9-2,2s.9,2,2,2,2-.9,2-2-.9-2-2-2Z"/></g><g><circle class="d" cx="263.06" cy="208.33" r="4.5"/><path class="d" d="M263.06,215.33c-3.86,0-7-3.14-7-7s3.14-7,7-7,7,3.14,7,7-3.14,7-7,7Zm0-9c-1.1,0-2,.9-2,2s.9,2,2,2,2-.9,2-2-.9-2-2-2Z"/></g><g><circle class="d" cx="214.75" cy="217.91" r="4.5"/><path class="d" d="M214.75,224.91c-3.86,0-7-3.14-7-7s3.14-7,7-7,7,3.14,7,7-3.14,7-7,7Zm0-9c-1.1,0-2,.9-2,2s.9,2,2,2,2-.9,2-2-.9-2-2-2Z"/></g><g><circle class="d" cx="244.1" cy="217.34" r="4.5"/><path class="d" d="M244.1,224.34c-3.86,0-7-3.14-7-7s3.14-7,7-7,7,3.14,7,7-3.14,7-7,7Zm0-9c-1.1,0-2,.9-2,2s.9,2,2,2,2-.9,2-2-.9-2-2-2Z"/></g><g><circle class="d" cx="253.46" cy="217.83" r="4.5"/><path class="d" d="M253.46,224.83c-3.86,0-7-3.14-7-7s3.14-7,7-7,7,3.14,7,7-3.14,7-7,7Zm0-9c-1.1,0-2,.9-2,2s.9,2,2,2,2-.9,2-2-.9-2-2-2Z"/></g><g><circle class="d" cx="272.47" cy="218.68" r="4.5"/><path class="d" d="M272.47,225.68c-3.86,0-7-3.14-7-7s3.14-7,7-7,7,3.14,7,7-3.14,7-7,7Zm0-9c-1.1,0-2,.9-2,2s.9,2,2,2,2-.9,2-2-.9-2-2-2Z"/></g><g><circle class="d" cx="224.92" cy="227.1" r="4.5"/><path class="d" d="M224.92,234.1c-3.86,0-7-3.14-7-7s3.14-7,7-7,7,3.14,7,7-3.14,7-7,7Zm0-9c-1.1,0-2,.9-2,2s.9,2,2,2,2-.9,2-2-.9-2-2-2Z"/></g><g><circle class="d" cx="253.3" cy="227.43" r="4.5"/><path class="d" d="M253.3,234.43c-3.86,0-7-3.14-7-7s3.14-7,7-7,7,3.14,7,7-3.14,7-7,7Zm0-9c-1.1,0-2,.9-2,2s.9,2,2,2,2-.9,2-2-.9-2-2-2Z"/></g><g><circle class="d" cx="263" cy="227.84" r="4.5"/><path class="d" d="M263,234.84c-3.86,0-7-3.14-7-7s3.14-7,7-7,7,3.14,7,7-3.14,7-7,7Zm0-9c-1.1,0-2,.9-2,2s.9,2,2,2,2-.9,2-2-.9-2-2-2Z"/></g><g><circle class="d" cx="215" cy="246.77" r="4.5"/><path class="d" d="M215,253.77c-3.86,0-7-3.14-7-7s3.14-7,7-7,7,3.14,7,7-3.14,7-7,7Zm0-9c-1.1,0-2,.9-2,2s.9,2,2,2,2-.9,2-2-.9-2-2-2Z"/></g><g><circle class="d" cx="224.27" cy="246.59" r="4.5"/><path class="d" d="M224.27,253.59c-3.86,0-7-3.14-7-7s3.14-7,7-7,7,3.14,7,7-3.14,7-7,7Zm0-9c-1.1,0-2,.9-2,2s.9,2,2,2,2-.9,2-2-.9-2-2-2Z"/></g><g><circle class="d" cx="243.57" cy="246.71" r="4.5"/><path class="d" d="M243.57,253.71c-3.86,0-7-3.14-7-7s3.14-7,7-7,7,3.14,7,7-3.14,7-7,7Zm0-9c-1.1,0-2,.9-2,2s.9,2,2,2,2-.9,2-2-.9-2-2-2Z"/></g><g><circle class="d" cx="253.31" cy="246.79" r="4.5"/><path class="d" d="M253.31,253.79c-3.86,0-7-3.14-7-7s3.14-7,7-7,7,3.14,7,7-3.14,7-7,7Zm0-9c-1.1,0-2,.9-2,2s.9,2,2,2,2-.9,2-2-.9-2-2-2Z"/></g><g><circle class="d" cx="272.96" cy="246.4" r="4.5"/><path class="d" d="M272.96,253.4c-3.86,0-7-3.14-7-7s3.14-7,7-7,7,3.14,7,7-3.14,7-7,7Zm0-9c-1.1,0-2,.9-2,2s.9,2,2,2,2-.9,2-2-.9-2-2-2Z"/></g><g><circle class="d" cx="224.59" cy="255.87" r="4.5"/><path class="d" d="M224.59,262.87c-3.86,0-7-3.14-7-7s3.14-7,7-7,7,3.14,7,7-3.14,7-7,7Zm0-9c-1.1,0-2,.9-2,2s.9,2,2,2,2-.9,2-2-.9-2-2-2Z"/></g><g><circle class="d" cx="214.91" cy="265.97" r="4.5"/><path class="d" d="M214.91,272.97c-3.86,0-7-3.14-7-7s3.14-7,7-7,7,3.14,7,7-3.14,7-7,7Zm0-9c-1.1,0-2,.9-2,2s.9,2,2,2,2-.9,2-2-.9-2-2-2Z"/></g><g><circle class="d" cx="224.52" cy="275.36" r="4.5"/><path class="d" d="M224.52,282.36c-3.86,0-7-3.14-7-7s3.14-7,7-7,7,3.14,7,7-3.14,7-7,7Zm0-9c-1.1,0-2,.9-2,2s.9,2,2,2,2-.9,2-2-.9-2-2-2Z"/></g><g><circle class="d" cx="215.38" cy="294.26" r="4.5"/><path class="d" d="M215.38,301.26c-3.86,0-7-3.14-7-7s3.14-7,7-7,7,3.14,7,7-3.14,7-7,7Zm0-9c-1.1,0-2,.9-2,2s.9,2,2,2,2-.9,2-2-.9-2-2-2Z"/></g><g><circle class="d" cx="224.5" cy="294.32" r="4.5"/><path class="d" d="M224.5,301.32c-3.86,0-7-3.14-7-7s3.14-7,7-7,7,3.14,7,7-3.14,7-7,7Zm0-9c-1.1,0-2,.9-2,2s.9,2,2,2,2-.9,2-2-.9-2-2-2Z"/></g><g><circle class="d" cx="214.93" cy="303.98" r="4.5"/><path class="d" d="M214.93,310.98c-3.86,0-7-3.14-7-7s3.14-7,7-7,7,3.14,7,7-3.14,7-7,7Zm0-9c-1.1,0-2,.9-2,2s.9,2,2,2,2-.9,2-2-.9-2-2-2Z"/></g><g><circle class="d" cx="224.54" cy="304.16" r="4.5"/><path class="d" d="M224.54,311.16c-3.86,0-7-3.14-7-7s3.14-7,7-7,7,3.14,7,7-3.14,7-7,7Zm0-9c-1.1,0-2,.9-2,2s.9,2,2,2,2-.9,2-2-.9-2-2-2Z"/></g><g><circle class="d" cx="214.85" cy="313.85" r="4.5"/><path class="d" d="M214.85,320.85c-3.86,0-7-3.14-7-7s3.14-7,7-7,7,3.14,7,7-3.14,7-7,7Zm0-9c-1.1,0-2,.9-2,2s.9,2,2,2,2-.9,2-2-.9-2-2-2Z"/></g><g><circle class="d" cx="224.55" cy="313.84" r="4.5"/><path class="d" d="M224.55,320.84c-3.86,0-7-3.14-7-7s3.14-7,7-7,7,3.14,7,7-3.14,7-7,7Zm0-9c-1.1,0-2,.9-2,2s.9,2,2,2,2-.9,2-2-.9-2-2-2Z"/></g><g><circle class="d" cx="243.52" cy="313.74" r="4.5"/><path class="d" d="M243.52,320.74c-3.86,0-7-3.14-7-7s3.14-7,7-7,7,3.14,7,7-3.14,7-7,7Zm0-9c-1.1,0-2,.9-2,2s.9,2,2,2,2-.9,2-2-.9-2-2-2Z"/></g><g><circle class="d" cx="224.7" cy="323.16" r="4.5"/><path class="d" d="M224.7,330.16c-3.86,0-7-3.14-7-7s3.14-7,7-7,7,3.14,7,7-3.14,7-7,7Zm0-9c-1.1,0-2,.9-2,2s.9,2,2,2,2-.9,2-2-.9-2-2-2Z"/></g><g><circle class="d" cx="224.19" cy="217.93" r="4.5"/><path class="d" d="M224.19,224.93c-3.86,0-7-3.14-7-7s3.14-7,7-7,7,3.14,7,7-3.14,7-7,7Zm0-9c-1.1,0-2,.9-2,2s.9,2,2,2,2-.9,2-2-.9-2-2-2Z"/></g><g><circle class="d" cx="215.11" cy="322.92" r="4.5"/><path class="d" d="M215.11,329.92c-3.86,0-7-3.14-7-7s3.14-7,7-7,7,3.14,7,7-3.14,7-7,7Zm0-9c-1.1,0-2,.9-2,2s.9,2,2,2,2-.9,2-2-.9-2-2-2Z"/></g><g><circle class="d" cx="196.1" cy="275.24" r="4.5"/><path class="d" d="M196.1,282.24c-3.86,0-7-3.14-7-7s3.14-7,7-7,7,3.14,7,7-3.14,7-7,7Zm0-9c-1.1,0-2,.9-2,2s.9,2,2,2,2-.9,2-2-.9-2-2-2Z"/></g><g><circle class="d" cx="224.41" cy="265.55" r="4.5"/><path class="d" d="M224.42,272.55c-3.86,0-7-3.14-7-7s3.14-7,7-7,7,3.14,7,7-3.14,7-7,7Zm0-9c-1.1,0-2,.9-2,2s.9,2,2,2,2-.9,2-2-.9-2-2-2Z"/></g><g><circle class="d" cx="214.63" cy="285.01" r="4.5"/><path class="d" d="M214.63,292.01c-3.86,0-7-3.14-7-7s3.14-7,7-7,7,3.14,7,7-3.14,7-7,7Zm0-9c-1.1,0-2,.9-2,2s.9,2,2,2,2-.9,2-2-.9-2-2-2Z"/></g><g><circle class="d" cx="224.41" cy="284.95" r="4.5"/><path class="d" d="M224.41,291.95c-3.86,0-7-3.14-7-7s3.14-7,7-7,7,3.14,7,7-3.14,7-7,7Zm0-9c-1.1,0-2,.9-2,2s.9,2,2,2,2-.9,2-2-.9-2-2-2Z"/></g><g><circle class="d" cx="234.58" cy="303.69" r="4.5"/><path class="d" d="M234.58,310.69c-3.86,0-7-3.14-7-7s3.14-7,7-7,7,3.14,7,7-3.14,7-7,7Zm0-9c-1.1,0-2,.9-2,2s.9,2,2,2,2-.9,2-2-.9-2-2-2Z"/></g><g><circle class="d" cx="243.68" cy="227.27" r="4.5"/><path class="d" d="M243.68,234.27c-3.86,0-7-3.14-7-7s3.14-7,7-7,7,3.14,7,7-3.14,7-7,7Zm0-9c-1.1,0-2,.9-2,2s.9,2,2,2,2-.9,2-2-.9-2-2-2Z"/></g><g><circle class="d" cx="214.93" cy="227.39" r="4.5"/><path class="d" d="M214.93,234.39c-3.86,0-7-3.14-7-7s3.14-7,7-7,7,3.14,7,7-3.14,7-7,7Zm0-9c-1.1,0-2,.9-2,2s.9,2,2,2,2-.9,2-2-.9-2-2-2Z"/></g><g><circle class="d" cx="215.27" cy="256.29" r="4.5"/><path class="d" d="M215.27,263.29c-3.86,0-7-3.14-7-7s3.14-7,7-7,7,3.14,7,7-3.14,7-7,7Zm0-9c-1.1,0-2,.9-2,2s.9,2,2,2,2-.9,2-2-.9-2-2-2Z"/></g><g><circle class="d" cx="205.43" cy="275.4" r="4.5"/><path class="d" d="M205.43,282.4c-3.86,0-7-3.14-7-7s3.14-7,7-7,7,3.14,7,7-3.14,7-7,7Zm0-9c-1.1,0-2,.9-2,2s.9,2,2,2,2-.9,2-2-.9-2-2-2Z"/></g><g><circle class="d" cx="282.44" cy="227.24" r="4.5"/><path class="d" d="M282.44,234.24c-3.86,0-7-3.14-7-7s3.14-7,7-7,7,3.14,7,7-3.14,7-7,7Zm0-9c-1.1,0-2,.9-2,2s.9,2,2,2,2-.9,2-2-.9-2-2-2Z"/></g><g><circle class="d" cx="215.06" cy="275.2" r="4.5"/><path class="d" d="M215.06,282.2c-3.86,0-7-3.14-7-7s3.14-7,7-7,7,3.14,7,7-3.14,7-7,7Zm0-9c-1.1,0-2,.9-2,2s.9,2,2,2,2-.9,2-2-.9-2-2-2Z"/></g><g><circle class="d" cx="281.94" cy="246.69" r="4.5"/><path class="d" d="M281.94,253.69c-3.86,0-7-3.14-7-7s3.14-7,7-7,7,3.14,7,7-3.14,7-7,7Zm0-9c-1.1,0-2,.9-2,2s.9,2,2,2,2-.9,2-2-.9-2-2-2Z"/></g><g><circle class="d" cx="272.39" cy="237.91" r="4.5"/><path class="d" d="M272.39,244.91c-3.86,0-7-3.14-7-7s3.14-7,7-7,7,3.14,7,7-3.14,7-7,7Zm0-9c-1.1,0-2,.9-2,2s.9,2,2,2,2-.9,2-2-.9-2-2-2Z"/></g><g><circle class="d" cx="263.15" cy="236.83" r="4.5"/><path class="d" d="M263.15,243.83c-3.86,0-7-3.14-7-7s3.14-7,7-7,7,3.14,7,7-3.14,7-7,7Zm0-9c-1.1,0-2,.9-2,2s.9,2,2,2,2-.9,2-2-.9-2-2-2Z"/></g><g><circle class="d" cx="253.39" cy="237.04" r="4.5"/><path class="d" d="M253.39,244.04c-3.86,0-7-3.14-7-7s3.14-7,7-7,7,3.14,7,7-3.14,7-7,7Zm0-9c-1.1,0-2,.9-2,2s.9,2,2,2,2-.9,2-2-.9-2-2-2Z"/></g><g><circle class="d" cx="243.74" cy="237.03" r="4.5"/><path class="d" d="M243.74,244.02c-3.86,0-7-3.14-7-7s3.14-7,7-7,7,3.14,7,7-3.14,7-7,7Zm0-9c-1.1,0-2,.9-2,2s.9,2,2,2,2-.9,2-2-.9-2-2-2Z"/></g><g><circle class="d" cx="234.23" cy="236.71" r="4.5"/><path class="d" d="M234.23,243.71c-3.86,0-7-3.14-7-7s3.14-7,7-7,7,3.14,7,7-3.14,7-7,7Zm0-9c-1.1,0-2,.9-2,2s.9,2,2,2,2-.9,2-2-.9-2-2-2Z"/></g><g><circle class="d" cx="224.41" cy="237.02" r="4.5"/><path class="d" d="M224.41,244.02c-3.86,0-7-3.14-7-7s3.14-7,7-7,7,3.14,7,7-3.14,7-7,7Zm0-9c-1.1,0-2,.9-2,2s.9,2,2,2,2-.9,2-2-.9-2-2-2Z"/></g><g><circle class="d" cx="214.76" cy="236.68" r="4.5"/><path class="d" d="M214.76,243.68c-3.86,0-7-3.14-7-7s3.14-7,7-7,7,3.14,7,7-3.14,7-7,7Zm0-9c-1.1,0-2,.9-2,2s.9,2,2,2,2-.9,2-2-.9-2-2-2Z"/></g><g><circle class="d" cx="205.24" cy="236.86" r="4.5"/><path class="d" d="M205.24,243.86c-3.86,0-7-3.14-7-7s3.14-7,7-7,7,3.14,7,7-3.14,7-7,7Zm0-9c-1.1,0-2,.9-2,2s.9,2,2,2,2-.9,2-2-.9-2-2-2Z"/></g><g><circle class="d" cx="195.93" cy="237.23" r="4.5"/><path class="d" d="M195.93,244.23c-3.86,0-7-3.14-7-7s3.14-7,7-7,7,3.14,7,7-3.14,7-7,7Zm0-9c-1.1,0-2,.9-2,2s.9,2,2,2,2-.9,2-2-.9-2-2-2Z"/></g><g><circle class="d" cx="282.36" cy="236.73" r="4.5"/><path class="d" d="M282.36,243.73c-3.86,0-7-3.14-7-7s3.14-7,7-7,7,3.14,7,7-3.14,7-7,7Zm0-9c-1.1,0-2,.9-2,2s.9,2,2,2,2-.9,2-2-.9-2-2-2Z"/></g><g><circle class="d" cx="186.53" cy="237.17" r="4.5"/><path class="d" d="M186.54,244.17c-3.86,0-7-3.14-7-7s3.14-7,7-7,7,3.14,7,7-3.14,7-7,7Zm0-9c-1.1,0-2,.9-2,2s.9,2,2,2,2-.9,2-2-.9-2-2-2Z"/></g></g><rect class="e" x="2.5" y="2.5" width="450" height="630"/></g></g></svg>